<svg width="20" height="20" viewBox="0 0 20 20" fill="none" xmlns="http://www.w3.org/2000/svg">
<path fill-rule="evenodd" clip-rule="evenodd" d="M10 -0.00012207C7.28417 -0.00012207 6.94417 0.0115446 5.8775 0.0598779C2.24583 0.226545 0.2275 2.24154 0.0608333 5.87654C0.0116667 6.94404 0 7.28404 0 9.99988C0 12.7157 0.0116667 13.0565 0.06 14.1232C0.226667 17.7549 2.24167 19.7732 5.87667 19.9399C6.94417 19.9882 7.28417 19.9999 10 19.9999C12.7158 19.9999 13.0567 19.9882 14.1233 19.9399C17.7517 19.7732 19.775 17.7582 19.9392 14.1232C19.9883 13.0565 20 12.7157 20 9.99988C20 7.28404 19.9883 6.94404 19.94 5.87738C19.7767 2.24904 17.7592 0.227378 14.1242 0.0607113C13.0567 0.0115446 12.7158 -0.00012207 10 -0.00012207ZM10 1.80238C12.67 1.80238 12.9867 1.81238 14.0417 1.86071C16.7517 1.98404 18.0175 3.26988 18.1408 5.95988C18.1892 7.01404 18.1983 7.33071 18.1983 10.0007C18.1983 12.6715 18.1883 12.9874 18.1408 14.0415C18.0167 16.729 16.7542 18.0174 14.0417 18.1407C12.9867 18.189 12.6717 18.199 10 18.199C7.33 18.199 7.01333 18.189 5.95917 18.1407C3.2425 18.0165 1.98333 16.7249 1.86 14.0407C1.81167 12.9865 1.80167 12.6707 1.80167 9.99988C1.80167 7.32988 1.8125 7.01404 1.86 5.95904C1.98417 3.26988 3.24667 1.98321 5.95917 1.85988C7.01417 1.81238 7.33 1.80238 10 1.80238ZM4.865 9.99988C4.865 7.16404 7.16417 4.86488 10 4.86488C12.8358 4.86488 15.135 7.16404 15.135 9.99988C15.135 12.8365 12.8358 15.1357 10 15.1357C7.16417 15.1357 4.865 12.8357 4.865 9.99988ZM10 13.3332C8.15917 13.3332 6.66667 11.8415 6.66667 9.99988C6.66667 8.15904 8.15917 6.66654 10 6.66654C11.8408 6.66654 13.3333 8.15904 13.3333 9.99988C13.3333 11.8415 11.8408 13.3332 10 13.3332ZM14.1375 4.66238C14.1375 3.99988 14.675 3.46238 15.3383 3.46238C16.0008 3.46238 16.5375 3.99988 16.5375 4.66238C16.5375 5.32488 16.0008 5.86238 15.3383 5.86238C14.675 5.86238 14.1375 5.32488 14.1375 4.66238Z" fill="#584D62"/>
</svg>
