<svg width="97" height="26" viewBox="0 0 97 26" fill="none" xmlns="http://www.w3.org/2000/svg">
<path fill-rule="evenodd" clip-rule="evenodd" d="M67.2747 25V19.656L69.1947 17.544L73.6427 25H79.0827L72.7787 14.568L79.1147 7.528H73.1947L67.2747 13.832V0.776001H62.4747V25H67.2747ZM43.5556 24.2C42.1476 24.9893 40.5796 25.384 38.8516 25.384C37.1236 25.384 35.5503 24.9893 34.1316 24.2C32.7129 23.4107 31.5823 22.328 30.7396 20.952C29.8969 19.576 29.4756 18.0133 29.4756 16.264C29.4756 14.4933 29.8969 12.9253 30.7396 11.56C31.5823 10.1947 32.7129 9.11733 34.1316 8.328C35.5503 7.53867 37.1236 7.144 38.8516 7.144C40.5796 7.144 42.1476 7.53867 43.5556 8.328C44.9636 9.11733 46.0889 10.1947 46.9316 11.56C47.7743 12.9253 48.1956 14.4933 48.1956 16.264C48.1956 18.0133 47.7743 19.576 46.9316 20.952C46.0889 22.328 44.9636 23.4107 43.5556 24.2ZM14.5921 13.8L10.5281 25H6.36805L0.352051 7.528H5.31205L8.70405 17.672L12.5121 7.528H16.6721L20.4481 17.672L23.8401 7.528H28.8321L22.784 25H18.6241L14.5921 13.8ZM38.8516 21.064C37.5503 21.064 36.4889 20.616 35.6676 19.72C34.8463 18.824 34.4356 17.672 34.4356 16.264C34.4356 14.8773 34.8463 13.7307 35.6676 12.824C36.4889 11.9173 37.5503 11.464 38.8516 11.464C40.1529 11.464 41.2089 11.9173 42.0196 12.824C42.8303 13.7307 43.2356 14.8773 43.2356 16.264C43.2356 17.672 42.8303 18.824 42.0196 19.72C41.2089 20.616 40.1529 21.064 38.8516 21.064ZM55.3672 15.592V25H50.5672V7.528H55.0472V10.152C55.4952 9.064 56.1298 8.32267 56.9512 7.928C57.7725 7.53333 58.7165 7.336 59.7832 7.336H60.8072V11.496H59.3032C58.1298 11.496 57.1805 11.8533 56.4552 12.568C55.7298 13.2827 55.3672 14.2907 55.3672 15.592ZM83.5983 1.16V4.68H81.6783V1.16H83.5983ZM83.5983 25V8.008H81.6783V25H83.5983ZM95.3138 25.16C95.0152 25.1813 94.7805 25.192 94.6098 25.192C93.1805 25.192 92.0872 24.792 91.3298 23.992C90.5725 23.192 90.1938 22.024 90.1938 20.488V9.832H86.9938V8.008H88.2098C88.8285 8.008 89.3138 7.816 89.6658 7.432C90.0178 7.048 90.1938 6.52533 90.1938 5.864V4.04H92.1138V8.008H95.8258V9.832H92.1138V20.488C92.1138 20.9573 92.1832 21.416 92.3218 21.864C92.4605 22.312 92.7325 22.6747 93.1378 22.952C93.5432 23.2293 94.1298 23.368 94.8978 23.368C95.0685 23.368 95.2765 23.3573 95.5218 23.336C95.7672 23.3147 95.9645 23.2933 96.1138 23.272V25.032C95.8792 25.096 95.6125 25.1387 95.3138 25.16Z" fill="white"/>
</svg>
