<svg width="97" height="26" viewBox="0 0 97 26" fill="none" xmlns="http://www.w3.org/2000/svg">
<path fill-rule="evenodd" clip-rule="evenodd" d="M67.2747 24.9999V19.6559L69.1947 17.5439L73.6427 24.9999H79.0827L72.7787 14.5679L79.1147 7.52788H73.1947L67.2747 13.8319V0.775879H62.4747V24.9999H67.2747ZM43.5556 24.1999C42.1476 24.9892 40.5796 25.3839 38.8516 25.3839C37.1236 25.3839 35.5502 24.9892 34.1316 24.1999C32.7129 23.4105 31.5822 22.3279 30.7396 20.9519C29.8969 19.5759 29.4756 18.0132 29.4756 16.2639C29.4756 14.4932 29.8969 12.9252 30.7396 11.5599C31.5822 10.1945 32.7129 9.11721 34.1316 8.32788C35.5502 7.53855 37.1236 7.14388 38.8516 7.14388C40.5796 7.14388 42.1476 7.53855 43.5556 8.32788C44.9636 9.11721 46.0889 10.1945 46.9316 11.5599C47.7742 12.9252 48.1956 14.4932 48.1956 16.2639C48.1956 18.0132 47.7742 19.5759 46.9316 20.9519C46.0889 22.3279 44.9636 23.4105 43.5556 24.1999ZM14.592 13.7999L10.528 24.9999H6.368L0.352001 7.52788H5.312L8.704 17.6719L12.512 7.52788H16.672L20.448 17.6719L23.84 7.52788H28.832L22.784 24.9999H18.624L14.592 13.7999ZM38.8516 21.0639C37.5502 21.0639 36.4889 20.6159 35.6676 19.7199C34.8462 18.8239 34.4356 17.6719 34.4356 16.2639C34.4356 14.8772 34.8462 13.7305 35.6676 12.8239C36.4889 11.9172 37.5502 11.4639 38.8516 11.4639C40.1529 11.4639 41.2089 11.9172 42.0196 12.8239C42.8302 13.7305 43.2356 14.8772 43.2356 16.2639C43.2356 17.6719 42.8302 18.8239 42.0196 19.7199C41.2089 20.6159 40.1529 21.0639 38.8516 21.0639ZM55.3671 15.5919V24.9999H50.5671V7.52788H55.0471V10.1519C55.4951 9.06388 56.1298 8.32255 56.9511 7.92788C57.7724 7.53321 58.7164 7.33588 59.7831 7.33588H60.8071V11.4959H59.3031C58.1298 11.4959 57.1804 11.8532 56.4551 12.5679C55.7298 13.2825 55.3671 14.2905 55.3671 15.5919ZM83.5982 1.15988V4.67988H81.6782V1.15988H83.5982ZM83.5982 24.9999V8.00788H81.6782V24.9999H83.5982ZM95.3138 25.1599C95.0151 25.1812 94.7804 25.1919 94.6098 25.1919C93.1804 25.1919 92.0871 24.7919 91.3298 23.9919C90.5724 23.1919 90.1938 22.0239 90.1938 20.4879V9.83188H86.9938V8.00788H88.2098C88.8284 8.00788 89.3138 7.81588 89.6658 7.43188C90.0178 7.04788 90.1938 6.52521 90.1938 5.86388V4.03988H92.1138V8.00788H95.8258V9.83188H92.1138V20.4879C92.1138 20.9572 92.1831 21.4159 92.3218 21.8639C92.4604 22.3119 92.7324 22.6745 93.1378 22.9519C93.5431 23.2292 94.1298 23.3679 94.8978 23.3679C95.0684 23.3679 95.2764 23.3572 95.5218 23.3359C95.7671 23.3145 95.9644 23.2932 96.1138 23.2719V25.0319C95.8791 25.0959 95.6124 25.1385 95.3138 25.1599Z" fill="#24053E"/>
</svg>
