<svg width="20" height="17" viewBox="0 0 20 17" fill="none" xmlns="http://www.w3.org/2000/svg">
<path d="M20 2.17209C19.2642 2.49876 18.4733 2.71876 17.6433 2.81792C18.4908 2.31042 19.1417 1.50626 19.4475 0.547925C18.655 1.01792 17.7767 1.35959 16.8417 1.54376C16.0942 0.746258 15.0267 0.247925 13.8467 0.247925C11.1975 0.247925 9.25083 2.71959 9.84917 5.28542C6.44 5.11459 3.41667 3.48126 1.3925 0.998758C0.3175 2.84292 0.835 5.25542 2.66167 6.47709C1.99 6.45542 1.35667 6.27126 0.804167 5.96376C0.759167 7.86459 2.12167 9.64293 4.095 10.0388C3.5175 10.1954 2.885 10.2321 2.24167 10.1088C2.76333 11.7388 4.27833 12.9246 6.075 12.9579C4.35 14.3104 2.17667 14.9146 0 14.6579C1.81583 15.8221 3.97333 16.5013 6.29 16.5013C13.9083 16.5013 18.2125 10.0671 17.9525 4.29626C18.7542 3.71709 19.45 2.99459 20 2.17209Z" fill="#584D62"/>
</svg>
